<svg width="25" height="25" viewBox="0 0 25 25" fill="none" xmlns="http://www.w3.org/2000/svg">
<g clip-path="url(#clip0_37_2252)">
<path fill-rule="evenodd" clip-rule="evenodd" d="M0 0H47.5005V1.9231H0V0ZM0 3.84619H47.5005V5.76929H0V3.84619ZM0 7.69238H47.5005V9.61548H0V7.69238ZM0 11.5386H47.5005V13.4617H0V11.5386ZM0 15.3848H47.5005V17.3079H0V15.3848ZM0 19.231H47.5005V21.1541H0V19.231ZM0 23.0771H47.5005V25.0002H0V23.0771Z" fill="#BD3D44"/>
<path fill-rule="evenodd" clip-rule="evenodd" d="M0 1.9231H47.5005V3.84619H0V1.9231ZM0 5.76929H47.5005V7.69238H0V5.76929ZM0 9.61548H47.5005V11.5386H0V9.61548ZM0 13.4617H47.5005V15.3848H0V13.4617ZM0 17.3079H47.5005V19.231H0V17.3079ZM0 21.1541H47.5005V23.0771H0V21.1541Z" fill="white"/>
<path fill-rule="evenodd" clip-rule="evenodd" d="M0 0H19.0002V13.4617H0V0Z" fill="#192F5D"/>
<path fill-rule="evenodd" clip-rule="evenodd" d="M1.57672 0.576935L1.76903 1.1154H2.3075L1.86518 1.44233L2.03826 1.96156L1.57672 1.63464L1.15364 1.96156L1.32672 1.44233L0.865173 1.1154H1.4421L1.57672 0.576935ZM4.74983 0.576935L4.92291 1.1154H5.4806L5.01906 1.44233L5.21137 1.96156L4.74983 1.63464L4.28828 1.96156L4.48059 1.44233L4.01905 1.1154H4.57675L4.74983 0.576935ZM7.92294 0.576935L8.09601 1.1154H8.65371L8.19217 1.44233L8.38448 1.96156L7.92294 1.63464L7.46139 1.96156L7.6537 1.44233L7.19216 1.1154H7.74986L7.92294 0.576935ZM11.0768 0.576935L11.2691 1.1154H11.8076L11.3653 1.44233L11.5384 1.96156L11.0768 1.63464L10.6345 1.96156L10.8076 1.44233L10.346 1.1154H10.923L11.0768 0.576935ZM14.2499 0.576935L14.423 1.1154H14.9807L14.5192 1.44233L14.7115 1.96156L14.2307 1.63464L13.7884 1.96156L13.9615 1.44233L13.4999 1.1154H14.0576L14.2499 0.576935ZM17.423 0.576935L17.5961 1.1154H18.1538L17.6923 1.44233L17.8846 1.96156L17.423 1.63464L16.9615 1.96156L17.1538 1.44233L16.6923 1.1154H17.2499L17.423 0.576935ZM3.17289 1.9231L3.34597 2.46157H3.90366L3.44212 2.78849L3.63443 3.30773L3.17289 2.9808L2.71135 3.30773L2.90365 2.78849L2.44211 2.46157H2.99981L3.17289 1.9231ZM6.32677 1.9231L6.51907 2.46157H7.05754L6.61523 2.78849L6.78831 3.30773L6.32677 2.9808L5.88445 3.30773L6.05753 2.78849L5.59599 2.46157H6.17292L6.32677 1.9231ZM9.49987 1.9231L9.67295 2.46157H10.2306L9.76911 2.78849L9.96142 3.30773L9.49987 2.9808L9.03833 3.30773L9.23064 2.78849L8.7691 2.46157H9.32679L9.49987 1.9231ZM12.673 1.9231L12.8461 2.46157H13.4038L12.9422 2.78849L13.1345 3.30773L12.673 2.9808L12.2114 3.30773L12.4037 2.78849L11.9422 2.46157H12.4999L12.673 1.9231ZM15.8269 1.9231L16.0192 2.46157H16.5384L16.0961 2.78849L16.2692 3.30773L15.8076 2.9808L15.3653 3.30773L15.5384 2.78849L15.0769 2.46157H15.6538L15.8269 1.9231ZM1.59595 3.26927L1.7498 3.80774H2.32673L1.86518 4.13466L2.03826 4.6539L1.57672 4.32697L1.15364 4.6539L1.32672 4.13466L0.865173 3.80774H1.4421L1.59595 3.26927ZM4.74983 3.26927L4.92291 3.80774H5.4806L5.03829 4.13466L5.21137 4.6539L4.74983 4.32697L4.30751 4.6539L4.48059 4.13466L4.01905 3.80774H4.57675L4.74983 3.26927ZM7.92294 3.26927L8.09601 3.80774H8.65371L8.19217 4.13466L8.38448 4.6539L7.92294 4.32697L7.46139 4.6539L7.6537 4.13466L7.19216 3.80774H7.74986L7.92294 3.26927ZM11.0768 3.26927L11.2691 3.80774H11.8076L11.3653 4.13466L11.5384 4.6539L11.0768 4.32697L10.6345 4.6539L10.8076 4.13466L10.346 3.80774H10.923L11.0768 3.26927ZM14.2499 3.26927L14.423 3.80774H14.9807L14.5384 4.13466L14.7115 4.6539L14.2499 4.32697L13.8076 4.6539L13.9807 4.13466L13.5191 3.80774H14.0768L14.2499 3.26927ZM17.423 3.26927L17.5961 3.80774H18.1538L17.6923 4.13466L17.8846 4.6539L17.423 4.32697L16.9615 4.6539L17.1538 4.13466L16.6923 3.80774H17.2499L17.423 3.26927ZM3.17289 4.61544L3.34597 5.1539H3.90366L3.44212 5.48083L3.63443 6.00006L3.17289 5.67314L2.71135 6.00006L2.90365 5.48083L2.44211 5.1539H2.99981L3.17289 4.61544ZM6.32677 4.61544L6.51907 5.1539H7.05754L6.61523 5.48083L6.78831 6.00006L6.32677 5.67314L5.88445 6.00006L6.05753 5.48083L5.59599 5.1539H6.17292L6.32677 4.61544ZM9.49987 4.61544L9.67295 5.1539H10.2306L9.78834 5.48083L9.96142 6.00006L9.49987 5.67314L9.05756 6.00006L9.23064 5.48083L8.7691 5.1539H9.32679L9.49987 4.61544ZM12.673 4.61544L12.8461 5.1539H13.4038L12.9422 5.48083L13.1345 6.00006L12.673 5.67314L12.2114 6.00006L12.4037 5.48083L11.9422 5.1539H12.4999L12.673 4.61544ZM15.8269 4.61544L16.0192 5.1539H16.5384L16.0961 5.48083L16.2692 6.00006L15.8076 5.67314L15.3653 6.00006L15.5384 5.48083L15.0769 5.1539H15.6538L15.8269 4.61544ZM1.59595 5.9616L1.7498 6.50007H2.32673L1.86518 6.827L2.03826 7.34623L1.57672 7.01931L1.15364 7.34623L1.32672 6.827L0.865173 6.50007H1.4421L1.59595 5.9616ZM4.74983 5.9616L4.92291 6.50007H5.4806L5.03829 6.827L5.21137 7.34623L4.74983 7.01931L4.30751 7.34623L4.48059 6.827L4.01905 6.50007H4.57675L4.74983 5.9616ZM7.92294 5.9616L8.09601 6.50007H8.65371L8.19217 6.827L8.38448 7.34623L7.92294 7.01931L7.46139 7.34623L7.6537 6.827L7.19216 6.50007H7.74986L7.92294 5.9616ZM11.0768 5.9616L11.2691 6.50007H11.8076L11.3653 6.827L11.5384 7.34623L11.0768 7.01931L10.6345 7.34623L10.8076 6.827L10.346 6.50007H10.923L11.0768 5.9616ZM14.2499 5.9616L14.423 6.50007H14.9807L14.5384 6.827L14.7115 7.34623L14.2499 7.01931L13.8076 7.34623L13.9807 6.827L13.5191 6.50007H14.0768L14.2499 5.9616ZM17.423 5.9616L17.5961 6.50007H18.1538L17.6923 6.827L17.8846 7.34623L17.423 7.01931L16.9615 7.34623L17.1538 6.827L16.6923 6.50007H17.2499L17.423 5.9616ZM3.17289 7.30777L3.34597 7.84624H3.90366L3.44212 8.17316L3.63443 8.6924L3.17289 8.36547L2.71135 8.6924L2.90365 8.17316L2.44211 7.84624H2.99981L3.17289 7.30777ZM6.32677 7.30777L6.51907 7.84624H7.05754L6.61523 8.17316L6.78831 8.6924L6.32677 8.36547L5.88445 8.6924L6.05753 8.17316L5.59599 7.84624H6.17292L6.32677 7.30777ZM9.49987 7.30777L9.67295 7.84624H10.2306L9.78834 8.17316L9.96142 8.6924L9.49987 8.36547L9.05756 8.6924L9.23064 8.17316L8.7691 7.84624H9.32679L9.49987 7.30777ZM12.673 7.30777L12.8461 7.84624H13.4038L12.9422 8.17316L13.1345 8.6924L12.673 8.36547L12.2114 8.6924L12.4037 8.17316L11.9422 7.84624H12.4999L12.673 7.30777ZM15.8269 7.30777L16.0192 7.84624H16.5384L16.0961 8.17316L16.2692 8.6924L15.8076 8.36547L15.3653 8.6924L15.5384 8.17316L15.0769 7.84624H15.6538L15.8269 7.30777ZM1.59595 8.65394L1.7498 9.1924H2.32673L1.86518 9.51933L2.03826 10.0386L1.57672 9.71164L1.15364 10.0386L1.32672 9.51933L0.865173 9.1924H1.4421L1.59595 8.65394ZM4.74983 8.65394L4.92291 9.1924H5.4806L5.03829 9.51933L5.21137 10.0386L4.74983 9.71164L4.30751 10.0386L4.48059 9.51933L4.01905 9.1924H4.57675L4.74983 8.65394ZM7.92294 8.65394L8.09601 9.1924H8.65371L8.19217 9.51933L8.38448 10.0386L7.92294 9.71164L7.46139 10.0386L7.6537 9.51933L7.19216 9.1924H7.74986L7.92294 8.65394ZM11.0768 8.65394L11.2691 9.1924H11.8076L11.3653 9.51933L11.5384 10.0386L11.0768 9.71164L10.6345 10.0386L10.8076 9.51933L10.346 9.1924H10.923L11.0768 8.65394ZM14.2499 8.65394L14.423 9.1924H14.9807L14.5384 9.51933L14.7115 10.0386L14.2499 9.71164L13.8076 10.0386L13.9807 9.51933L13.5191 9.1924H14.0768L14.2499 8.65394ZM17.423 8.65394L17.5961 9.1924H18.1538L17.6923 9.51933L17.8846 10.0386L17.423 9.71164L16.9615 10.0386L17.1538 9.51933L16.6923 9.1924H17.2499L17.423 8.65394ZM3.17289 10.0001L3.34597 10.5386H3.90366L3.44212 10.8655L3.63443 11.3847L3.17289 11.0578L2.71135 11.3847L2.90365 10.8655L2.44211 10.5386H2.99981L3.17289 10.0001ZM6.32677 10.0001L6.51907 10.5386H7.05754L6.61523 10.8655L6.78831 11.3847L6.32677 11.0578L5.88445 11.3847L6.05753 10.8655L5.59599 10.5386H6.17292L6.32677 10.0001ZM9.49987 10.0001L9.67295 10.5386H10.2306L9.78834 10.8655L9.96142 11.3847L9.49987 11.0578L9.05756 11.3847L9.23064 10.8655L8.7691 10.5386H9.32679L9.49987 10.0001ZM12.673 10.0001L12.8461 10.5386H13.4038L12.9422 10.8655L13.1345 11.3847L12.673 11.0578L12.2114 11.3847L12.4037 10.8655L11.9422 10.5386H12.4999L12.673 10.0001ZM15.8269 10.0001L16.0192 10.5386H16.5384L16.0961 10.8655L16.2692 11.3847L15.8076 11.0578L15.3653 11.3847L15.5384 10.8655L15.0769 10.5386H15.6538L15.8269 10.0001ZM1.59595 11.3463L1.7498 11.8847H2.32673L1.86518 12.2117L2.03826 12.7309L1.57672 12.404L1.15364 12.7309L1.32672 12.2117L0.865173 11.8847H1.4421L1.59595 11.3463ZM4.74983 11.3463L4.92291 11.8847H5.4806L5.03829 12.2117L5.21137 12.7309L4.74983 12.404L4.30751 12.7309L4.48059 12.2117L4.01905 11.8847H4.57675L4.74983 11.3463ZM7.92294 11.3463L8.09601 11.8847H8.65371L8.19217 12.2117L8.38448 12.7309L7.92294 12.404L7.46139 12.7309L7.6537 12.2117L7.19216 11.8847H7.74986L7.92294 11.3463ZM11.0768 11.3463L11.2691 11.8847H11.8076L11.3653 12.2117L11.5384 12.7309L11.0768 12.404L10.6345 12.7309L10.8076 12.2117L10.346 11.8847H10.923L11.0768 11.3463ZM14.2499 11.3463L14.423 11.8847H14.9807L14.5384 12.2117L14.7115 12.7309L14.2499 12.404L13.8076 12.7309L13.9807 12.2117L13.5191 11.8847H14.0768L14.2499 11.3463ZM17.423 11.3463L17.5961 11.8847H18.1538L17.6923 12.2117L17.8846 12.7309L17.423 12.404L16.9615 12.7309L17.1538 12.2117L16.6923 11.8847H17.2499L17.423 11.3463Z" fill="white"/>
</g>
<defs>
<clipPath id="clip0_37_2252">
<rect width="25" height="25" rx="12.5" fill="white"/>
</clipPath>
</defs>
</svg>
